<svg width="200" height="68" viewBox="0 0 200 68" fill="none" xmlns="http://www.w3.org/2000/svg">
<path fill-rule="evenodd" clip-rule="evenodd" d="M192.984 4.51953H172.289C171.124 4.61499 170.005 5.02694 169.047 5.7129C168.089 6.39885 167.327 7.33399 166.84 8.42188L162.21 19.3733C161.3 21.5263 162.21 23.2653 164.363 23.2653H185.058C186.221 23.1687 187.339 22.7575 188.296 22.0736C189.254 21.3898 190.016 20.4579 190.507 19.3733L195.137 8.42188C196.047 6.26886 195.086 4.51953 192.984 4.51953ZM157.125 25.4597H153.738C152.646 25.4597 151.554 25.5425 150.473 25.6253L145.064 46.3274C146.779 45.9406 148.514 45.6537 150.26 45.4683L151.11 42.2388C152.535 42.1146 153.971 42.0525 155.426 42.0525C156.882 42.0525 158.318 42.1146 159.743 42.2388L160.582 45.4683C162.332 45.6529 164.071 45.9398 165.789 46.3274L160.37 25.6253C159.298 25.5425 158.217 25.4908 157.125 25.4597ZM155.426 37.1771C154.415 37.1771 153.404 37.1771 152.393 37.2599L154.193 30.3661H156.629L158.429 37.2599C157.448 37.1978 156.437 37.1771 155.426 37.1771H155.426ZM126.73 31.9406C126.722 33.0835 126.421 34.2042 125.856 35.1897L125.876 35.2104C126.471 35.8096 126.944 36.5241 127.266 37.3123C127.589 38.1005 127.755 38.9465 127.755 39.8011C127.755 40.6557 127.589 41.5018 127.266 42.2899C126.944 43.0781 126.471 43.7926 125.876 44.3918C124.679 45.6077 123.063 46.292 121.377 46.2964H109.529V25.3976H120.407C121.523 25.4022 122.618 25.7081 123.582 26.2844C124.546 26.8606 125.345 27.6869 125.897 28.68C126.45 29.673 126.737 30.7977 126.73 31.9406ZM120.407 30.5007H114.341V33.3679H120.528C120.839 33.3438 121.13 33.2039 121.347 32.9746C121.479 32.8393 121.584 32.6778 121.653 32.4998C121.723 32.3218 121.756 32.1311 121.751 31.9395C121.757 31.7477 121.725 31.5567 121.655 31.3785C121.585 31.2003 121.48 31.0389 121.347 30.9044C121.225 30.7754 121.079 30.6731 120.917 30.6037C120.755 30.5343 120.582 30.4993 120.407 30.5007ZM121.904 41.0819C122.077 41.0108 122.235 40.9043 122.368 40.7689C122.496 40.6433 122.599 40.4923 122.668 40.3251C122.738 40.1578 122.774 39.9778 122.774 39.7959C122.774 39.6141 122.738 39.434 122.668 39.2668C122.599 39.0996 122.496 38.9486 122.368 38.8229C122.235 38.6876 122.077 38.5811 121.904 38.5099C121.73 38.4388 121.544 38.4044 121.357 38.4089H114.28V41.183H121.357C121.544 41.1875 121.73 41.1531 121.904 41.0819ZM86.7313 39.1438C87.316 38.8422 87.857 38.459 88.3388 38.0052L88.4196 37.9327L88.4904 37.8603C89.3366 36.9972 89.9556 35.929 90.2899 34.755V34.6204V34.5583V34.4651V34.3616V34.2685V34.1546C90.3797 33.705 90.4237 33.2471 90.4213 32.7883C90.4213 30.8666 89.6758 29.0236 88.3486 27.6647C87.0215 26.3059 85.2215 25.5425 83.3446 25.5425H78.31C76.4331 25.5425 74.6331 26.3059 73.306 27.6647C71.9788 29.0236 71.2333 30.8666 71.2333 32.7883V46.2964H76.0454V39.5268H76.4903H76.5509H80.6959C82.3269 41.597 83.8602 43.7259 85.2958 45.9134H90.6539C89.2183 43.5534 87.6884 41.2692 86.0641 39.061L86.7313 39.1438ZM85.043 34.1649C84.8531 34.3662 84.6252 34.5259 84.3732 34.6344C84.1213 34.7429 83.8505 34.798 83.5771 34.7964H78.31C78.0367 34.798 77.7658 34.7429 77.5139 34.6344C77.2619 34.5259 77.0341 34.3662 76.8441 34.1649C76.6476 33.9704 76.4916 33.7372 76.3856 33.4792C76.2796 33.2212 76.2258 32.9439 76.2274 32.664C76.2332 32.1004 76.4546 31.5615 76.8441 31.1631C77.2336 30.7662 77.7605 30.543 78.31 30.5421H83.5771C83.847 30.542 84.1141 30.5972 84.3627 30.7045C84.6114 30.8117 84.8366 30.9689 85.025 31.1666C85.2134 31.3644 85.3613 31.5987 85.4599 31.8559C85.5585 32.1131 85.6058 32.3879 85.5991 32.664C85.6086 32.9395 85.5644 33.2142 85.4689 33.4719C85.3734 33.7297 85.2286 33.9653 85.043 34.1649ZM45.5649 25.439H50.3771V46.2964H45.5649V25.439ZM16.5907 25.4597H13.204C12.102 25.4597 11.0203 25.5425 9.93854 25.6253L4.51978 46.3274C6.23816 45.9414 7.9764 45.6545 9.72624 45.4683L10.5754 42.2388C12.0009 42.1146 13.4365 42.0525 14.8923 42.0525C16.3481 42.0525 17.7836 42.1146 19.2091 42.2388L20.0482 45.4683C21.7981 45.6536 23.5364 45.9405 25.2546 46.3274L19.8359 25.6253C18.7643 25.5425 17.6825 25.4908 16.5907 25.4597ZM14.8923 37.1771H14.8922C13.8813 37.1771 12.8703 37.1771 11.8594 37.2599L13.6589 30.3661H16.0953L17.8948 37.2599C16.9041 37.1978 15.9032 37.1771 14.8923 37.1771ZM178.254 10.1052C178.761 9.95848 179.285 9.8853 179.811 9.88784C180.62 9.83044 181.421 10.0852 182.055 10.6021C182.33 10.886 182.541 11.2271 182.676 11.6022C182.81 11.9772 182.864 12.3775 182.834 12.7758V16.7506H181.368V15.9329C181.165 16.2338 180.88 16.4676 180.549 16.6057C180.137 16.7681 179.696 16.8421 179.255 16.823C178.807 16.8345 178.362 16.7462 177.951 16.5643C177.604 16.4098 177.306 16.1588 177.091 15.8397C176.893 15.5329 176.787 15.1727 176.788 14.8046C176.78 14.5243 176.835 14.2459 176.949 13.991C177.063 13.736 177.233 13.5114 177.445 13.3347C178.064 12.92 178.8 12.7271 179.538 12.7861H181.277V12.6826C181.288 12.48 181.258 12.2772 181.186 12.0879C181.115 11.8986 181.004 11.7273 180.862 11.5854C180.506 11.3109 180.064 11.1785 179.619 11.2128C179.248 11.2096 178.879 11.2691 178.527 11.3887C178.191 11.4886 177.878 11.6577 177.607 11.8856L177.001 10.7263C177.379 10.4442 177.803 10.2338 178.254 10.1052ZM180.64 15.4153C180.937 15.2388 181.163 14.9599 181.277 14.6286L181.307 13.8419H179.7C178.81 13.8419 178.365 14.1421 178.365 14.7425C178.362 14.8771 178.39 15.0107 178.448 15.1316C178.506 15.2524 178.592 15.3569 178.699 15.436C178.976 15.6165 179.301 15.7034 179.629 15.6844C179.983 15.6869 180.332 15.5941 180.64 15.4153ZM172.39 9.88784C172.997 9.87823 173.596 10.0279 174.129 10.3226C174.635 10.6017 175.05 11.0264 175.322 11.544C175.622 12.0975 175.772 12.7228 175.757 13.3554C175.771 13.9945 175.621 14.6261 175.322 15.1876C175.045 15.702 174.632 16.1256 174.129 16.409C173.596 16.7037 172.997 16.8533 172.39 16.8437C171.993 16.8601 171.597 16.787 171.23 16.6296C170.863 16.4722 170.535 16.2344 170.267 15.9329V19.2762H168.721V9.96029H170.197V10.8505C170.449 10.5307 170.776 10.2814 171.147 10.1259C171.543 9.96483 171.965 9.88397 172.39 9.88784ZM172.987 15.3419C173.23 15.242 173.451 15.0907 173.634 14.8977C173.819 14.69 173.963 14.4468 174.057 14.1822C174.15 13.9176 174.192 13.6366 174.18 13.3554C174.195 13.0755 174.154 12.7954 174.06 12.5321C173.967 12.2688 173.822 12.0277 173.634 11.8235C173.452 11.6292 173.231 11.4763 172.987 11.3746C172.744 11.273 172.482 11.2249 172.219 11.2335C171.865 11.2278 171.517 11.317 171.208 11.4923C170.912 11.6728 170.668 11.9298 170.5 12.2375C170.334 12.5856 170.247 12.968 170.247 13.3554C170.247 13.7429 170.334 14.1252 170.5 14.4734C170.662 14.7855 170.908 15.044 171.208 15.2186C171.517 15.3938 171.865 15.4831 172.219 15.4774C172.481 15.488 172.743 15.4418 172.987 15.3419ZM189.536 9.96031L187.444 14.9909L185.351 9.96031H183.734L186.615 16.7817L186.504 17.0508C186.394 17.3277 186.225 17.5755 186.008 17.7754C185.813 17.9253 185.574 18.002 185.331 17.9927C185.119 17.9879 184.91 17.9423 184.714 17.8582C184.52 17.7791 184.341 17.6632 184.188 17.5166L183.582 18.6862C183.808 18.8971 184.077 19.0529 184.37 19.1417C184.696 19.2552 185.038 19.3112 185.381 19.3073C185.917 19.3262 186.444 19.1703 186.888 18.8622C187.364 18.451 187.715 17.9085 187.899 17.2992L191.012 9.96031H189.536Z" fill="url(#paint0_linear_102_2405)"/>
<defs>
<linearGradient id="paint0_linear_102_2405" x1="195.48" y1="46.3274" x2="178.011" y2="-33.4638" gradientUnits="userSpaceOnUse">
<stop stop-color="#605CD7"/>
<stop offset="1" stop-color="#319CF3"/>
</linearGradient>
</defs>
</svg>
