<svg width="32" height="32" viewBox="0 0 32 32" fill="none" xmlns="http://www.w3.org/2000/svg">
<path fill-rule="evenodd" clip-rule="evenodd" d="M8.50005 22.8396L8.50134 22.8608C8.50366 22.8933 8.50907 22.9501 8.52114 23.0225C8.54653 23.1748 8.59433 23.3535 8.67399 23.5128C8.75051 23.6659 8.84017 23.7703 8.94471 23.84C9.03923 23.903 9.23717 23.9998 9.64291 23.9998H20.6143H23.3572C23.5225 23.9998 23.8218 23.901 24.1115 23.6113C24.4013 23.3216 24.5 23.0223 24.5 22.8569V15.9998V14.3998H22.9C20.2491 14.3998 18.1 12.2508 18.1 9.5998V7.9998H9.64291C9.23717 7.9998 9.03923 8.09664 8.94471 8.15966C8.84017 8.22935 8.75051 8.33373 8.67399 8.48678C8.59433 8.64609 8.54653 8.82477 8.52114 8.97713C8.50907 9.04951 8.50366 9.10634 8.50134 9.1388L8.50005 9.16V22.8396ZM27.7 12.7998V15.9998V22.8569C27.7 24.063 27.1131 25.1352 26.3743 25.874C25.6354 26.6129 24.5633 27.1998 23.3572 27.1998H20.6143H9.64291C8.67722 27.1998 7.84658 26.9538 7.16967 26.5025C6.50278 26.0579 6.07816 25.4766 5.81182 24.9439C5.54862 24.4175 5.425 23.9105 5.36468 23.5486C5.33388 23.3638 5.31787 23.2063 5.30947 23.0888C5.30525 23.0298 5.30291 22.98 5.30161 22.9411C5.30096 22.9216 5.30057 22.9047 5.30034 22.8906L5.30011 22.8716L5.30006 22.8637L5.30005 22.8602L5.30005 22.8585C5.30005 22.8568 7.97108 22.8559 5.30005 22.8585V9.14266C6.91584 9.14266 6.9984 9.14266 5.30005 9.14266L5.30005 9.1394L5.30006 9.13586L5.30011 9.12798L5.30034 9.10899C5.30057 9.09493 5.30096 9.07806 5.30161 9.05855C5.30291 9.0196 5.30525 8.96985 5.30947 8.91081C5.31787 8.79327 5.33388 8.63581 5.36468 8.45105C5.425 8.08912 5.54862 7.58209 5.81182 7.05569C6.07816 6.52303 6.50278 5.94169 7.16967 5.4971C7.84658 5.04583 8.67722 4.7998 9.64291 4.7998H19.7C24.1183 4.7998 27.7 8.38153 27.7 12.7998ZM10.1 15.9998C10.1 15.1161 10.8164 14.3998 11.7 14.3998H18.1C18.9837 14.3998 19.7 15.1161 19.7 15.9998C19.7 16.8835 18.9837 17.5998 18.1 17.5998H11.7C10.8164 17.5998 10.1 16.8835 10.1 15.9998ZM10.1 20.7998C10.1 19.9162 10.8164 19.1998 11.7 19.1998H14.9C15.7837 19.1998 16.5 19.9162 16.5 20.7998C16.5 21.6835 15.7837 22.3998 14.9 22.3998H11.7C10.8164 22.3998 10.1 21.6835 10.1 20.7998ZM24.2269 11.1998C23.7449 9.83594 22.6639 8.75499 21.3 8.27293V9.5998C21.3 10.4835 22.0164 11.1998 22.9 11.1998H24.2269Z" fill="#10142D"/>
</svg>
