<svg width="56" height="56" viewBox="0 0 56 56" fill="none" xmlns="http://www.w3.org/2000/svg">
<rect width="56" height="56" rx="28" fill="url(#paint0_linear_235_9497)"/>
<path d="M28 13.5C28.8284 13.5 29.5 14.1716 29.5 15V33.6667C29.5 34.4951 28.8284 35.1667 28 35.1667C27.1716 35.1667 26.5 34.4951 26.5 33.6667V15C26.5 14.1716 27.1716 13.5 28 13.5ZM29.5 41C29.5 41.8284 28.8284 42.5 28 42.5C27.1716 42.5 26.5 41.8284 26.5 41C26.5 40.1716 27.1716 39.5 28 39.5C28.8284 39.5 29.5 40.1716 29.5 41Z" fill="#FCFCFD" stroke="#FCFCFD"/>
<defs>
<linearGradient id="paint0_linear_235_9497" x1="0" y1="0" x2="56" y2="56" gradientUnits="userSpaceOnUse">
<stop stop-color="#FD7842"/>
<stop offset="1" stop-color="#B346B0"/>
</linearGradient>
</defs>
</svg>
