<svg width="128" height="40" viewBox="0 0 128 40" fill="none" xmlns="http://www.w3.org/2000/svg">
<path fill-rule="evenodd" clip-rule="evenodd" d="M122.431 1H109.427C108.694 1.05999 107.991 1.31886 107.389 1.74991C106.787 2.18097 106.309 2.76861 106.002 3.45224L103.093 10.3341C102.521 11.6871 103.093 12.7799 104.446 12.7799H117.45C118.182 12.7192 118.884 12.4608 119.486 12.031C120.087 11.6013 120.567 11.0157 120.875 10.3341L123.784 3.45224C124.356 2.09928 123.753 1 122.431 1ZM99.8973 14.1589H97.7691C97.083 14.1589 96.3969 14.2109 95.7171 14.2629L92.3183 27.2722C93.3959 27.0291 94.4861 26.8488 95.5837 26.7323L96.1174 24.7029C97.0131 24.6248 97.9152 24.5858 98.83 24.5858C99.7449 24.5858 100.647 24.6248 101.543 24.7029L102.07 26.7323C103.17 26.8483 104.262 27.0286 105.342 27.2722L101.937 14.2629C101.263 14.2109 100.583 14.1784 99.8973 14.1589ZM98.83 21.5221C98.1948 21.5221 97.5595 21.5221 96.9242 21.5741L98.055 17.2421H99.586L100.717 21.5741C100.101 21.5351 99.4653 21.5221 98.83 21.5221ZM80.797 18.2314C80.7924 18.9496 80.6029 19.6539 80.2477 20.2732L80.2604 20.2862C80.6344 20.6628 80.9315 21.1118 81.1342 21.607C81.337 22.1023 81.4414 22.634 81.4414 23.171C81.4414 23.7081 81.337 24.2397 81.1342 24.735C80.9315 25.2303 80.6344 25.6793 80.2604 26.0558C79.5085 26.8199 78.4928 27.2499 77.4334 27.2527H69.9878V14.1198H76.8235C77.525 14.1227 78.2133 14.3149 78.819 14.6771C79.4248 15.0392 79.9266 15.5585 80.2739 16.1825C80.6211 16.8065 80.8016 17.5132 80.797 18.2314ZM76.8235 17.3266H73.0118V19.1284H76.8998C77.095 19.1132 77.2781 19.0253 77.4143 18.8812C77.4977 18.7962 77.5633 18.6947 77.607 18.5828C77.6507 18.471 77.6716 18.3512 77.6685 18.2308C77.6723 18.1102 77.6518 17.9902 77.608 17.8782C77.5643 17.7663 77.4983 17.6648 77.4143 17.5803C77.3378 17.4993 77.2459 17.435 77.1444 17.3914C77.0428 17.3478 76.9336 17.3257 76.8235 17.3266ZM77.7644 23.9759C77.8735 23.9312 77.9728 23.8643 78.056 23.7792C78.1367 23.7003 78.201 23.6054 78.2449 23.5003C78.2887 23.3952 78.3114 23.2821 78.3114 23.1678C78.3114 23.0535 78.2887 22.9404 78.2449 22.8353C78.201 22.7302 78.1367 22.6353 78.056 22.5563C77.9728 22.4713 77.8735 22.4044 77.7644 22.3596C77.6552 22.3149 77.5383 22.2933 77.4207 22.2962H72.9736V24.0394H77.4207C77.5383 24.0422 77.6552 24.0206 77.7644 23.9759ZM55.6619 22.758C56.0293 22.5685 56.3693 22.3277 56.6721 22.0425L56.7229 21.9969L56.7673 21.9514C57.2991 21.4091 57.6881 20.7378 57.8982 20V19.9155V19.8764V19.8179V19.7528V19.6943V19.6227C57.9546 19.3402 57.9823 19.0525 57.9808 18.7641C57.9808 17.5565 57.5122 16.3984 56.6782 15.5445C55.8443 14.6906 54.7131 14.2109 53.5337 14.2109H50.37C49.1905 14.2109 48.0594 14.6906 47.2254 15.5445C46.3914 16.3984 45.9229 17.5565 45.9229 18.7641V27.2527H48.9469V22.9986H49.2264H49.2645H51.8692C52.8942 24.2996 53.8577 25.6374 54.7598 27.012H58.1269C57.2248 25.5289 56.2633 24.0936 55.2426 22.7059L55.6619 22.758ZM54.601 19.6292C54.4816 19.7557 54.3384 19.8561 54.1801 19.9243C54.0218 19.9925 53.8516 20.0271 53.6798 20.026H50.37C50.1982 20.0271 50.028 19.9925 49.8697 19.9243C49.7113 19.8561 49.5682 19.7557 49.4488 19.6292C49.3253 19.507 49.2273 19.3604 49.1606 19.1983C49.094 19.0362 49.0602 18.8619 49.0613 18.6861C49.0649 18.3319 49.204 17.9932 49.4488 17.7429C49.6935 17.4935 50.0246 17.3532 50.37 17.3526H53.6798C53.8494 17.3526 54.0172 17.3873 54.1735 17.4547C54.3298 17.5221 54.4713 17.6208 54.5897 17.7451C54.7081 17.8694 54.801 18.0166 54.863 18.1782C54.9249 18.3398 54.9547 18.5125 54.9504 18.6861C54.9564 18.8592 54.9286 19.0318 54.8686 19.1938C54.8086 19.3557 54.7176 19.5038 54.601 19.6292ZM29.7928 14.1458H32.8168V27.2527H29.7928V14.1458ZM11.5854 14.1589H9.45716C8.76469 14.1589 8.08493 14.2109 7.40517 14.2629L4 27.2722C5.07984 27.0296 6.17215 26.8493 7.27175 26.7323L7.8054 24.7029C8.70116 24.6248 9.60328 24.5858 10.5181 24.5858C11.4329 24.5858 12.335 24.6248 13.2308 24.7029L13.7581 26.7323C14.8578 26.8488 15.9501 27.029 17.0298 27.2722L13.6247 14.2629C12.9513 14.2109 12.2715 14.1784 11.5854 14.1589ZM10.5181 21.5221H10.5181C9.88277 21.5221 9.2475 21.5221 8.61222 21.5741L9.74304 17.2421H11.2741L12.4049 21.5741C11.7823 21.5351 11.1534 21.5221 10.5181 21.5221ZM113.175 4.51005C113.493 4.41785 113.823 4.37186 114.153 4.37346C114.662 4.33739 115.165 4.4975 115.564 4.82228C115.736 5.00071 115.869 5.21504 115.953 5.45074C116.038 5.68643 116.072 5.93796 116.053 6.18825V8.68602H115.132V8.17216C115.004 8.36127 114.825 8.50819 114.617 8.59496C114.358 8.69703 114.081 8.74352 113.804 8.73156C113.522 8.73875 113.243 8.68327 112.984 8.56894C112.766 8.47189 112.579 8.31414 112.444 8.11362C112.319 7.92084 112.253 7.69449 112.254 7.46315C112.248 7.28704 112.283 7.11207 112.355 6.95186C112.426 6.79166 112.533 6.65054 112.667 6.5395C113.056 6.27889 113.518 6.15766 113.982 6.19475H115.074V6.12971C115.082 6.00239 115.062 5.87495 115.017 5.756C114.972 5.63705 114.903 5.52937 114.814 5.44022C114.59 5.26774 114.312 5.18452 114.033 5.20605C113.799 5.20407 113.568 5.24143 113.346 5.31663C113.135 5.3794 112.938 5.48564 112.768 5.62885L112.387 4.90033C112.625 4.72305 112.892 4.59086 113.175 4.51005ZM114.674 7.84693C114.861 7.73601 115.003 7.56078 115.074 7.35258L115.093 6.85822H114.083C113.524 6.85822 113.245 7.04686 113.245 7.42413C113.242 7.50875 113.26 7.59267 113.297 7.66862C113.333 7.74456 113.388 7.81024 113.454 7.85994C113.628 7.97338 113.833 8.02799 114.039 8.01605C114.261 8.01762 114.481 7.9593 114.674 7.84693ZM109.49 4.37346C109.871 4.36742 110.247 4.46148 110.583 4.64665C110.901 4.82208 111.161 5.0889 111.333 5.4142C111.521 5.76204 111.615 6.15496 111.606 6.55251C111.614 6.95411 111.52 7.35102 111.333 7.70382C111.159 8.02712 110.899 8.29326 110.583 8.47137C110.247 8.65654 109.871 8.7506 109.49 8.74457C109.24 8.75484 108.992 8.70892 108.761 8.61002C108.531 8.51112 108.324 8.36165 108.156 8.17216V10.2732H107.184V4.41899H108.112V4.97839C108.27 4.77741 108.475 4.62076 108.709 4.52306C108.957 4.42184 109.223 4.37103 109.49 4.37346ZM109.865 7.80081C110.018 7.73805 110.157 7.64295 110.272 7.52169C110.388 7.39114 110.478 7.23834 110.537 7.07205C110.596 6.90575 110.622 6.72921 110.615 6.55251C110.624 6.37662 110.599 6.2006 110.54 6.03512C110.481 5.86964 110.389 5.71815 110.272 5.58982C110.157 5.46772 110.019 5.37163 109.865 5.30776C109.712 5.24389 109.548 5.21367 109.382 5.21906C109.16 5.2155 108.941 5.27157 108.747 5.38167C108.561 5.49512 108.408 5.65664 108.302 5.85001C108.198 6.06876 108.144 6.30903 108.144 6.55251C108.144 6.79598 108.198 7.03625 108.302 7.255C108.404 7.45115 108.558 7.61358 108.747 7.72334C108.941 7.83345 109.16 7.88951 109.382 7.88595C109.547 7.89258 109.712 7.86357 109.865 7.80081ZM120.265 4.419L118.95 7.58025L117.635 4.419H116.618L118.429 8.70555L118.359 8.87467C118.29 9.04867 118.184 9.20438 118.048 9.32999C117.925 9.42419 117.775 9.47242 117.622 9.46659C117.489 9.46357 117.357 9.43488 117.234 9.38203C117.112 9.33234 117 9.25952 116.904 9.16738L116.523 9.9024C116.665 10.0349 116.834 10.1328 117.018 10.1886C117.223 10.2599 117.438 10.2951 117.654 10.2927C117.99 10.3045 118.322 10.2066 118.6 10.013C118.899 9.75455 119.12 9.41367 119.236 9.03078L121.192 4.419H120.265Z" fill="url(#paint0_linear_170_4408)"/>
<defs>
<linearGradient id="paint0_linear_170_4408" x1="124" y1="27.2722" x2="113.022" y2="-22.8688" gradientUnits="userSpaceOnUse">
<stop stop-color="#605CD7"/>
<stop offset="1" stop-color="#319CF3"/>
</linearGradient>
</defs>
</svg>
