<svg width="89" height="24" viewBox="0 0 89 24" fill="none" xmlns="http://www.w3.org/2000/svg">
<path fill-rule="evenodd" clip-rule="evenodd" d="M84.5054 0.599609H75.5648C75.0614 0.635601 74.5779 0.790923 74.1641 1.04956C73.7503 1.30819 73.4212 1.66078 73.2107 2.07096L71.2103 6.20009C70.8172 7.01187 71.2103 7.66754 72.1406 7.66754H81.0812C81.5838 7.63112 82.0667 7.47607 82.4803 7.21824C82.8939 6.96041 83.2235 6.60905 83.4353 6.20009L85.4357 2.07096C85.8288 1.25918 85.4138 0.599609 84.5054 0.599609ZM69.0134 8.49493H67.5502C67.0785 8.49493 66.6068 8.52615 66.1395 8.55737L63.8028 16.3629C64.5437 16.2171 65.2932 16.1089 66.0478 16.039L66.4147 14.8213C67.0305 14.7745 67.6507 14.7511 68.2796 14.7511C68.9086 14.7511 69.5288 14.7745 70.1446 14.8213L70.5071 16.039C71.2632 16.1086 72.0142 16.2168 72.7565 16.3629L70.4154 8.55737C69.9524 8.52615 69.4851 8.50664 69.0134 8.49493ZM68.2796 12.9129C67.8429 12.9129 67.4061 12.9129 66.9693 12.9441L67.7468 10.3448H68.7994L69.5768 12.9441C69.1532 12.9207 68.7164 12.9129 68.2796 12.9129ZM55.8819 10.9385C55.8787 11.3694 55.7485 11.7919 55.5043 12.1635L55.513 12.1713C55.7702 12.3973 55.9744 12.6667 56.1138 12.9638C56.2531 13.261 56.3249 13.58 56.3249 13.9022C56.3249 14.2244 56.2531 14.5434 56.1138 14.8406C55.9744 15.1378 55.7702 15.4072 55.513 15.6331C54.9961 16.0916 54.2978 16.3496 53.5694 16.3512H48.4506V8.47151H53.1501C53.6324 8.47325 54.1056 8.58857 54.5221 8.80585C54.9385 9.02313 55.2835 9.33468 55.5223 9.7091C55.761 10.0835 55.8851 10.5076 55.8819 10.9385ZM53.1501 10.3956H50.5296V11.4767H53.2026C53.3368 11.4676 53.4627 11.4148 53.5563 11.3283C53.6137 11.2773 53.6587 11.2164 53.6888 11.1493C53.7188 11.0822 53.7332 11.0103 53.731 10.9381C53.7337 10.8658 53.7196 10.7937 53.6895 10.7266C53.6594 10.6594 53.6141 10.5985 53.5563 10.5478C53.5037 10.4992 53.4406 10.4606 53.3707 10.4344C53.3009 10.4083 53.2259 10.3951 53.1501 10.3956ZM53.797 14.3852C53.872 14.3583 53.9403 14.3182 53.9975 14.2671C54.053 14.2198 54.0971 14.1628 54.1273 14.0998C54.1575 14.0367 54.1731 13.9689 54.1731 13.9003C54.1731 13.8317 54.1575 13.7638 54.1273 13.7008C54.0971 13.6377 54.053 13.5808 53.9975 13.5334C53.9403 13.4824 53.872 13.4422 53.797 13.4154C53.7219 13.3886 53.6415 13.3756 53.5607 13.3773H50.5034V14.4232H53.5607C53.6415 14.4249 53.7219 14.412 53.797 14.3852ZM38.6016 13.6544C38.8542 13.5407 39.0879 13.3962 39.296 13.2251L39.331 13.1978L39.3615 13.1704C39.7271 12.845 39.9945 12.4423 40.139 11.9996V11.9489V11.9255V11.8903V11.8513V11.8162V11.7733C40.1778 11.6037 40.1968 11.4311 40.1957 11.2581C40.1957 10.5335 39.8736 9.83865 39.3003 9.32631C38.7269 8.81398 37.9493 8.52615 37.1384 8.52615H34.9633C34.1525 8.52615 33.3748 8.81398 32.8015 9.32631C32.2281 9.83865 31.906 10.5335 31.906 11.2581V16.3512H33.985V13.7988H34.1772H34.2034H35.9941C36.6987 14.5794 37.3612 15.382 37.9814 16.2068H40.2962C39.676 15.317 39.015 14.4558 38.3133 13.6232L38.6016 13.6544ZM37.8722 11.7772C37.7901 11.853 37.6917 11.9132 37.5828 11.9542C37.474 11.9951 37.357 12.0159 37.2389 12.0152H34.9633C34.8452 12.0159 34.7282 11.9951 34.6194 11.9542C34.5105 11.9132 34.4121 11.853 34.33 11.7772C34.2451 11.7038 34.1777 11.6159 34.1319 11.5186C34.0861 11.4213 34.0629 11.3168 34.0636 11.2113C34.0661 10.9987 34.1617 10.7955 34.33 10.6454C34.4983 10.4957 34.7259 10.4115 34.9633 10.4112H37.2389C37.3554 10.4112 37.4708 10.432 37.5783 10.4724C37.6857 10.5129 37.783 10.5721 37.8644 10.6467C37.9458 10.7212 38.0097 10.8096 38.0523 10.9066C38.0949 11.0035 38.1153 11.1071 38.1124 11.2113C38.1165 11.3151 38.0974 11.4187 38.0562 11.5159C38.0149 11.613 37.9524 11.7019 37.8722 11.7772ZM20.8166 8.48712H22.8956V16.3512H20.8166V8.48712ZM8.29894 8.49493H6.83578C6.35971 8.49493 5.89237 8.52615 5.42504 8.55737L3.08398 16.3629C3.82637 16.2174 4.57734 16.1092 5.33332 16.039L5.7002 14.8213C6.31603 14.7745 6.93624 14.7511 7.56518 14.7511C8.19411 14.7511 8.81432 14.7745 9.43015 14.8213L9.79267 16.039C10.5487 16.1089 11.2997 16.217 12.042 16.3629L9.70095 8.55737C9.23798 8.52615 8.77064 8.50664 8.29894 8.49493ZM7.56518 12.9129H7.56514C7.12839 12.9129 6.69164 12.9129 6.25489 12.9441L7.03232 10.3448H8.08492L8.86236 12.9441C8.43433 12.9207 8.00194 12.9129 7.56518 12.9129ZM78.1413 2.70524C78.3601 2.64991 78.5865 2.62232 78.8139 2.62328C79.1634 2.60164 79.5093 2.69771 79.7835 2.89257C79.9021 2.99963 79.9935 3.12823 80.0515 3.26965C80.1096 3.41106 80.1329 3.56198 80.1198 3.71215V5.21082H79.4865V4.9025C79.3987 5.01597 79.2757 5.10412 79.1327 5.15618C78.9546 5.21742 78.7644 5.24532 78.5737 5.23814C78.3802 5.24246 78.188 5.20917 78.0103 5.14057C77.8603 5.08234 77.7317 4.98769 77.639 4.86737C77.5531 4.75171 77.5076 4.6159 77.508 4.4771C77.5044 4.37143 77.5281 4.26645 77.5774 4.17032C77.6266 4.0742 77.7 3.98953 77.7919 3.9229C78.0594 3.76654 78.3773 3.6938 78.696 3.71606H79.4472V3.67703C79.4522 3.60064 79.4389 3.52417 79.408 3.45281C79.3771 3.38144 79.3294 3.31682 79.2681 3.26333C79.1141 3.15985 78.9231 3.10992 78.7309 3.12283C78.5707 3.12165 78.4113 3.14406 78.2592 3.18918C78.1139 3.22685 77.9786 3.29059 77.8618 3.37651L77.5997 2.9394C77.7631 2.83303 77.9465 2.75372 78.1413 2.70524ZM79.1721 4.70736C79.3003 4.64081 79.3978 4.53567 79.4472 4.41075L79.4603 4.11414H78.7659C78.3815 4.11414 78.1893 4.22732 78.1893 4.45368C78.1877 4.50445 78.2 4.55481 78.2252 4.60038C78.2503 4.64594 78.2875 4.68535 78.3335 4.71517C78.4531 4.78323 78.5937 4.816 78.7353 4.80883C78.8883 4.80978 79.0389 4.77479 79.1721 4.70736ZM75.6081 2.62328C75.87 2.61966 76.1287 2.67609 76.3593 2.78719C76.5777 2.89245 76.7569 3.05255 76.8747 3.24772C77.0041 3.45643 77.0689 3.69218 77.0625 3.93071C77.0684 4.17167 77.0036 4.40982 76.8747 4.6215C76.7551 4.81547 76.5764 4.97516 76.3593 5.08203C76.1287 5.19313 75.87 5.24956 75.6081 5.24594C75.4364 5.25211 75.2653 5.22455 75.1068 5.16521C74.9483 5.10587 74.8063 5.01619 74.6909 4.9025V6.1631H74.0226V2.6506H74.6603V2.98624C74.7691 2.86565 74.9104 2.77166 75.0708 2.71304C75.2417 2.65231 75.4242 2.62182 75.6081 2.62328ZM75.8656 4.67969C75.9709 4.64204 76.0662 4.58497 76.1453 4.51222C76.2254 4.43389 76.2875 4.34221 76.328 4.24243C76.3684 4.14265 76.3865 4.03673 76.3811 3.93071C76.3876 3.82518 76.3701 3.71957 76.3295 3.62028C76.289 3.52099 76.2263 3.43009 76.1453 3.3531C76.0665 3.27984 75.9713 3.22218 75.866 3.18386C75.7606 3.14554 75.6475 3.12741 75.5338 3.13064C75.3812 3.1285 75.2306 3.16214 75.097 3.22821C74.9693 3.29627 74.8639 3.39319 74.7913 3.50921C74.7195 3.64046 74.6822 3.78462 74.6822 3.93071C74.6822 4.07679 74.7195 4.22095 74.7913 4.35221C74.8613 4.46989 74.9674 4.56735 75.097 4.63321C75.2306 4.69927 75.3812 4.73291 75.5338 4.73078C75.6472 4.73475 75.7602 4.71735 75.8656 4.67969ZM83.0156 2.6506L82.1115 4.54735L81.2074 2.6506H80.5086L81.7533 5.22253L81.7053 5.324C81.6581 5.42841 81.5849 5.52183 81.4913 5.5972C81.4071 5.65372 81.3038 5.68265 81.1986 5.67916C81.1071 5.67735 81.0167 5.66013 80.9322 5.62842C80.8481 5.59861 80.7711 5.55492 80.7051 5.49963L80.443 5.94064C80.5406 6.02016 80.6571 6.07887 80.7837 6.11237C80.9243 6.15515 81.072 6.17626 81.2205 6.17481C81.4518 6.18193 81.6797 6.12316 81.8713 6.00699C82.0769 5.85194 82.2285 5.64741 82.308 5.41767L83.6533 2.6506H83.0156Z" fill="url(#paint0_linear_189_3720)"/>
<defs>
<linearGradient id="paint0_linear_189_3720" x1="85.584" y1="16.3629" x2="79.7723" y2="-14.0533" gradientUnits="userSpaceOnUse">
<stop stop-color="#605CD7"/>
<stop offset="1" stop-color="#319CF3"/>
</linearGradient>
</defs>
</svg>
