<svg width="89" height="24" viewBox="0 0 89 24" fill="none" xmlns="http://www.w3.org/2000/svg">
<path d="M14.1355 22.8481C14.1355 22.8481 3.41602 20.0703 3.41602 6.43656V1.2002H24.8916V6.43656C24.855 19.5913 14.1355 22.8481 14.1355 22.8481Z" fill="#4FB84E"/>
<path d="M39.2696 7.64986H40.1843C40.5136 7.64986 40.7697 7.58597 40.9892 7.42633C41.1721 7.26668 41.2819 7.04321 41.2819 6.75585C41.2819 6.34077 41.0989 6.08534 40.7697 5.95762C40.5868 5.89377 40.3307 5.8618 40.0013 5.8618H39.2696V7.64986ZM37.1842 4.2973H40.1477C40.8794 4.2973 41.4282 4.36116 41.7941 4.48889C42.2697 4.64853 42.6721 4.93589 42.9282 5.28711C43.2209 5.67026 43.3307 6.11724 43.3307 6.6281C43.3307 7.04318 43.2209 7.42636 43.0014 7.80951C42.7819 8.19266 42.4526 8.44809 42.0502 8.63966V8.67159C42.1233 8.76738 42.2331 8.8951 42.3794 9.1186L44.0258 11.7049H41.7209L40.2209 9.21435H39.2696V11.7049H37.1842V4.2973Z" fill="black"/>
<path d="M44.977 11.6729V4.2973H50.2819V5.82988H47.0624V7.17093H49.6233V8.73542H47.0624V10.1403H50.4282V11.6729H44.977Z" fill="black"/>
<path d="M51.7819 11.6729V4.2973H57.0868V5.82988H53.8307V7.17093H56.4282V8.73542H53.8307V10.1403H57.2331V11.6729H51.7819Z" fill="black"/>
<path d="M60.6355 10.1403H61.477C62.2087 10.1403 62.7575 9.94875 63.1599 9.59754C63.5624 9.21439 63.7819 8.70352 63.7819 8.00108C63.7819 7.29864 63.5624 6.78778 63.1599 6.40463C62.7575 6.05341 62.1721 5.8618 61.477 5.8618H60.6355V10.1403ZM58.5502 4.2973H61.5502C62.9038 4.2973 63.9648 4.6166 64.7331 5.28711C65.5014 5.92569 65.9038 6.85164 65.9038 8.00108C65.9038 9.15053 65.5014 10.0765 64.7331 10.7151C63.9648 11.3856 62.8672 11.7049 61.5502 11.7049H58.5502V4.2973Z" fill="black"/>
<path d="M68.977 7.93722C68.977 8.57581 69.1965 9.08667 69.6355 9.50175C70.0746 9.91683 70.6233 10.1403 71.2819 10.1403C71.9404 10.1403 72.4892 9.91683 72.9282 9.50175C73.3672 9.08667 73.5868 8.54388 73.5868 7.93722C73.5868 7.33057 73.3672 6.81974 72.9282 6.43659C72.4892 6.02151 71.9404 5.82991 71.2819 5.82991C70.6233 5.82991 70.0746 6.02151 69.6355 6.43659C69.1965 6.81974 68.977 7.33057 68.977 7.93722ZM66.8185 7.93722C66.8185 6.85164 67.2209 5.95762 68.0624 5.25518C68.9038 4.52082 69.9648 4.16961 71.2453 4.16961C72.5258 4.16961 73.5868 4.52082 74.4282 5.25518C75.2697 5.98955 75.6721 6.88357 75.6721 7.93722C75.6721 9.02281 75.2697 9.94876 74.4282 10.6831C73.5868 11.4175 72.5258 11.8006 71.2453 11.8006C69.9648 11.8006 68.9038 11.4175 68.0624 10.6831C67.2209 9.94876 66.8185 9.05474 66.8185 7.93722Z" fill="black"/>
<path d="M76.6599 11.6729L77.355 4.2973H79.5868L80.8307 7.42633L81.2697 8.63966H81.3063C81.4526 8.1288 81.599 7.74562 81.7453 7.42633L82.9892 4.2973H85.2209L85.916 11.6729H83.8307L83.5746 8.3523C83.5746 8.19266 83.538 8.00108 83.538 7.80951C83.538 7.61793 83.538 7.42633 83.538 7.29861V7.10704C83.355 7.6179 83.2087 8.03301 83.0624 8.3523L82.1843 10.4915H80.3916L79.5136 8.3523L79.038 7.10704H79.0014C79.038 7.55404 79.038 7.96915 79.0014 8.3523L78.7453 11.6729H76.6599Z" fill="black"/>
<path d="M20.3185 6.46852H11.6843V10.8109H20.3185V12.12C20.3185 14.3231 19.6234 16.0792 15.7819 16.1111H11.6843V21.8264C13.1112 22.5927 14.1355 22.8481 14.1355 22.8481C14.1355 22.8481 24.8551 19.5914 24.8551 6.43659V2.50932C24.8551 4.68049 23.7575 6.43659 20.3185 6.46852Z" fill="#055532"/>
<path d="M34.0015 14.2272C34.8063 14.2272 35.6844 14.4508 36.2698 14.9616L35.5746 15.9195C35.1722 15.6322 34.5868 15.3767 34.0746 15.3767C32.8673 15.3767 32.3551 16.1111 32.3551 16.8774C32.3551 17.6437 32.9039 18.4738 34.0746 18.4738C34.66 18.4738 35.2819 18.1865 35.6844 17.8353L36.4527 18.7931C35.9039 19.2721 35.1356 19.6871 34.038 19.6871C32.099 19.6871 30.8917 18.5057 30.8917 16.9412C30.8185 15.4086 32.1356 14.2272 34.0015 14.2272Z" fill="black"/>
<path d="M39.2697 14.2911C39.8917 14.2911 40.1843 14.323 40.4404 14.4188C41.1355 14.6423 41.538 15.1851 41.538 15.9514C41.538 16.5261 41.2453 17.1328 40.6233 17.3882C40.6233 17.3882 40.6965 17.484 40.8428 17.7075L42.0136 19.5594H40.3672L39.3063 17.7714H38.6112V19.5594H37.1478V14.2911H39.2697ZM39.3063 16.6858C39.7819 16.6858 40.0746 16.4623 40.0746 16.0472C40.0746 15.7918 40.0014 15.5683 39.7088 15.4725C39.5624 15.4086 39.3795 15.4086 39.16 15.4086H38.6478V16.6858H39.3063Z" fill="black"/>
<path d="M46.5136 14.2911V15.4086H44.2087V16.3665H46.038V17.484H44.2087V18.4738H46.6233V19.5913H42.7087V14.2911H46.5136Z" fill="black"/>
<path d="M47.5746 14.2911H49.7331C51.6355 14.2911 52.8429 15.249 52.8429 16.9093C52.8429 18.5696 51.6355 19.5594 49.7331 19.5594H47.5746V14.2911ZM49.6599 18.4738C50.6843 18.4738 51.3063 17.931 51.3063 16.9412C51.3063 15.9514 50.6477 15.4086 49.6599 15.4086H49.038V18.4738H49.6599Z" fill="black"/>
<path d="M53.7941 14.2911H55.2575V19.5594H53.7941V14.2911Z" fill="black"/>
<path d="M57.8185 15.4086H55.9892V14.2911H61.1111V15.4086H59.2819V19.5594H57.8185V15.4086Z" fill="black"/>
<path d="M30.8184 11.6729V4.2973H36.0135V4.84011C36.0135 5.3829 35.5014 5.82988 34.8794 5.82988H32.9038V7.39443H35.5013V7.90526C35.5013 8.47999 34.9892 8.92703 34.3306 8.92703H32.9404V11.6729H30.8184Z" fill="black"/>
</svg>
